<svg xmlns="http://www.w3.org/2000/svg" width="272.091" height="109.663" viewBox="0 0 272.091 109.663">
  <g id="グループ_2" data-name="グループ 2" transform="translate(-246.883 -168.075)">
    <path id="パス_1" data-name="パス 1" d="M282.171,168.657,262.205,246.82h3.468l19.967-78.163Z" transform="translate(-3.906 -0.148)" fill="#0088db"/>
    <path id="パス_2" data-name="パス 2" d="M274.506,168.657,254.544,246.82h3.463l19.97-78.163Z" transform="translate(-1.953 -0.148)" fill="#0088db"/>
    <path id="パス_3" data-name="パス 3" d="M266.843,168.657l-19.96,78.163h3.467l19.97-78.163Z" transform="translate(0 -0.148)" fill="#0088db"/>
    <path id="パス_4" data-name="パス 4" d="M310.386,168.075l-13.2,14.984,3.347-14.55H289.911l-20.229,78.176H280.06l70.061-78.609Z" transform="translate(-5.812)" fill="#0088db"/>
    <path id="パス_5" data-name="パス 5" d="M289.726,260.546h46.215L323.3,222.412Z" transform="translate(-10.921 -13.851)" fill="#dc000c"/>
    <path id="パス_6" data-name="パス 6" d="M369.547,220.887l-9.812,39.245h6.685l5.03-19.922,7.062,19.935h7l22.775-29.45-5.883,23.69h-6.425l-4.124,5.772h15.394l9.941-39.264h-9.371l-24.4,32.642-5.211-14.04,15.828-18.576h-6.265l-15.52,15.862,3.893-15.895Z" transform="translate(-28.767 -13.462)" fill="#0088db"/>
    <path id="パス_7" data-name="パス 7" d="M440.188,220.887l-1.441,6.047h8.914l-8.638,33.2h5.709l8.636-33.2h8.511l1.449-6.047Z" transform="translate(-48.908 -13.462)" fill="#0088db"/>
    <g id="グループ_1" data-name="グループ 1" transform="translate(406.737 207.404)">
      <path id="パス_8" data-name="パス 8" d="M475.469,227.326l-1.52,6.772a3.04,3.04,0,0,0,1.692,2.366c1.689,1.015,8.268,3.883,11.053,5.076,2.362,1.012,1.8,2.706,1.8,2.706s-4.2,15.9-4.736,15.9H461.426l1.19-5.754h17.418l2.6-8.69s-15.224-6.368-15.565-8.227,2.111-11.293,2.252-11.991a7.093,7.093,0,0,1,6.584-4.628c1.187,0,18.83.062,18.83.062l-2.007,6.4Z" transform="translate(-461.426 -220.859)" fill="#0088db"/>
      <path id="パス_9" data-name="パス 9" d="M508.074,220.886H513.7l-7.108,33.5h10.277l8.754-33.483h5.757l-8.756,35.384s-.6,3.681-2.8,3.848c-1.855.142-15.6,0-15.6,0s-5.143-.592-4.1-5.031,7.949-34.217,7.949-34.217" transform="translate(-471.255 -220.866)" fill="#0088db"/>
      <path id="パス_10" data-name="パス 10" d="M539.368,236.617h18.27l1.689-9.476H541.4l1.692-6.257h17.927s5.417,1.355,4.742,4.733l-2.54,12.69s-.844,3.516-3.891,3.9l.28,10.264,22.943-31.584h9.311l-10.153,39.205H567.489l3.382-5.7h6.517l4.781-22-20.81,27.8H554.7l-1.8-17.139h-8.794l-4.621,17.139h-6.674Z" transform="translate(-479.623 -220.865)" fill="#0088db"/>
    </g>
    <path id="パス_11" data-name="パス 11" d="M366.487,293.776h1.89v1.712a9.45,9.45,0,0,1-1.25,2.4,7.278,7.278,0,0,0,1.881,1.852l-.886,1.406-1.635-1.188v5.361h-1.711V300.7s-.936,1.238-1.528,1.167l-.514-1.773a12.888,12.888,0,0,0,3.753-4.608h-3.558v-1.712h1.847v-2.258h1.711Z" transform="translate(-29.532 -31.467)" fill="#1a1311"/>
    <path id="パス_12" data-name="パス 12" d="M374.289,291.766v3.185h2.349v1.708h-2.349v6.364h2.63v1.618H369.44v-1.618h3.092v-6.364h-2.306V294.95h2.306v-3.185Z" transform="translate(-31.241 -31.53)" fill="#1a1311"/>
    <path id="パス_13" data-name="パス 13" d="M312.211,296.07s.184,1.706,1.018,1.939v-1.293h.6l-.6-.646Zm2.909-.649a2.7,2.7,0,0,1-.693,1.295h1.8v-1.295Zm2.814-1.8h2.86v1.8h-2.86v1.295h3.228v1.8h-2.62a14.217,14.217,0,0,0,2.87,4.209l-.887,1.624a14.177,14.177,0,0,1-2.591-3.293v4.291h-1.71v-3.962c-.728,1.054-1.52,2.53-2.5,3.167l-1.175-1.328a8.371,8.371,0,0,0,3.033-4.708l-1.77.053L313,300.2a2.276,2.276,0,0,1-1.066-.744v5.9h-1.57v-4.871a6.346,6.346,0,0,1-1.136,1.632l-.808-1.922a6.411,6.411,0,0,0,1.945-4.116h-1.755v-1.708h1.755V291.64h1.57v2.723h1.292l0,.591a10.123,10.123,0,0,0,.964-2.877l1.612.349-.229,1.2h.645V291.64h1.71Z" transform="translate(-15.687 -31.498)" fill="#1a1311"/>
    <path id="パス_14" data-name="パス 14" d="M335.578,293.544h1.428l-.37-1.293,1.429-.505,1.068,2.218-.653.319v1.059h-2.811a19.953,19.953,0,0,0,1.241,7.029l.373.3c.666-.519.593-1.548.963-2.213l1.179,1.626c-.3,1.181-.671,2.737-2.074,2.876-2-.227-2.21-2.445-2.724-3.919a38.89,38.89,0,0,1-.8-5.7h-6.865l-.014-1.8h6.781V291.33l1.706.231Z" transform="translate(-20.409 -31.419)" fill="#1a1311"/>
    <path id="パス_15" data-name="パス 15" d="M333.524,298.948v1.892h-2.075v3.047l2.389-.534.145,1.7a32.594,32.594,0,0,1-6.572,1.386l-.366-1.772,2.65-.454V300.84h-2.309v-1.892Z" transform="translate(-20.434 -33.361)" fill="#1a1311"/>
    <path id="パス_16" data-name="パス 16" d="M350.826,293.475l-2.088,1.963h4.429c-.73-.587-1.781-1.606-2.34-1.963m.872-1.767a13.459,13.459,0,0,0,5.409,3.408l-.46,1.618a5.153,5.153,0,0,1-2.077-.646V297.1h-7.435v-1.015a3.765,3.765,0,0,1-2.028.646l-.513-1.618a10.491,10.491,0,0,0,5.552-3.411Z" transform="translate(-24.907 -31.515)" fill="#1a1311"/>
    <path id="パス_17" data-name="パス 17" d="M356.822,300.379v1.746H350.9l-1.419,3a21.827,21.827,0,0,0,3.848-.5l-1.1-1.336,1.477-.807a22.815,22.815,0,0,1,3.354,3.749l-1.364.982-1.033-.965a68.067,68.067,0,0,1-8.779.764l-.3-1.741c2.748-.2,1.733-.15,1.733-.15l1.568-3h-3.6v-1.746Z" transform="translate(-25.083 -33.726)" fill="#1a1311"/>
    <path id="パス_18" data-name="パス 18" d="M502.8,286.359a26.526,26.526,0,0,1-2.035,5.381v15.686h-2.444v-11.44a7.217,7.217,0,0,1-1.568,1.755l-1.131-2.977a27.727,27.727,0,0,0,4.589-9.07Z" transform="translate(-63.406 -29.982)" fill="#1a1311"/>
    <path id="パス_19" data-name="パス 19" d="M510.7,286.178a14.939,14.939,0,0,1-1.112,2.451h7.939v2.58h-6.322v3.047h5.811v2.679h-5.811v3.134h6.045v2.679h-6.045v4.7h-2.583V291.21h-.279a15.814,15.814,0,0,1-3.123,4.55l-1.771-1.989a21.783,21.783,0,0,0,4.523-7.969Z" transform="translate(-65.402 -30.01)" fill="#1a1311"/>
    <path id="パス_20" data-name="パス 20" d="M546.145,289.221c-1.849.883-4.483.91-6.626,1.2v2.655l6.694.065v2.631H544v11.767h-2.583V295.775h-1.895c-.007,4.062-.905,8.4-4.014,11.12l-1.9-2.256c4.888-4.05,3.143-12.926,3.464-16.846a36.9,36.9,0,0,0,8.072-1.292Z" transform="translate(-73.09 -30.188)" fill="#1a1311"/>
    <rect id="長方形_1" data-name="長方形 1" width="9.547" height="2.676" transform="translate(453.836 256.497)" fill="#1a1311"/>
    <path id="パス_21" data-name="パス 21" d="M527.844,298.859H530.8v-3.734h-2.954Zm5.444,2.72h-5.444c-.379,3.321-.724,5.044-1.982,7.11l-2.033-2.534c2.071-4.061,1.566-7.3,1.566-13.711h7.893Z" transform="translate(-70.597 -31.703)" fill="#1a1311"/>
    <path id="パス_22" data-name="パス 22" d="M389.293,290.081h2.445v2.625h-2.074a10.205,10.205,0,0,0,2.457,4.305l-1.185,2.282c-.767-.212-1.642-1.7-1.642-1.7l.006,9.9-2.542-.015v-8.116c-1.218,2.629-1.751,2.949-1.751,2.949l-1.386-2.905s1.2-.785,3.137-6.695h-2.676v-2.625h2.676v-4.2h2.536Z" transform="translate(-34.856 -30.029)" fill="#1a1311"/>
    <path id="パス_23" data-name="パス 23" d="M401.6,288.419h4.2v2.537h-4.2v2.213h4.8v2.585H394.079v-2.585h4.936v-2.213h-4.153v-2.537h4.153v-2.543H401.6Z" transform="translate(-37.522 -30.029)" fill="#1a1311"/>
    <path id="パス_24" data-name="パス 24" d="M401.6,299.937V302.2h4.2v2.678h-4.2v2.583h4.8v2.63H394.079v-2.63h4.936v-2.583h-4.153V302.2h4.153v-2.262Z" transform="translate(-37.522 -33.613)" fill="#1a1311"/>
    <path id="パス_25" data-name="パス 25" d="M491.725,286.817l0,8.965a2.065,2.065,0,0,1-1.63,1.626,8.175,8.175,0,0,1-3.544.062l-.69-2.447h2.954s.366,0,.366-.733v-7.473Z" transform="translate(-60.919 -30.269)" fill="#1a1311"/>
    <rect id="長方形_2" data-name="長方形 2" width="2.492" height="6.739" transform="translate(424.487 257.281)" fill="#1a1311"/>
    <path id="パス_26" data-name="パス 26" d="M480.972,300.494a1.981,1.981,0,0,0,.958,1.5,6.186,6.186,0,0,0,1.923-1.5Zm-4.263,0v3.969a11.3,11.3,0,0,0,3.225-.706,18.58,18.58,0,0,1-2.074-3.263Zm-5.768-10.888a9.174,9.174,0,0,1-.738.785h3.136v-.785Zm4.8-2.03H479.8v2.03h-4.057v.785h4.475v2.077h-4.475v.876h3.828v2.724h.647v1.982h7.521v2.445h-2.492l1.412,1.361c-.209.67-1.6,1.412-2.217,1.84A12.3,12.3,0,0,0,487.9,305.1l-1.086,2.682a14.143,14.143,0,0,1-6.293-3.436l-.077,2.067a39.285,39.285,0,0,1-8.421,1.384l-.62-2.643c0,.089.505.275,2.907-.232v-1.659a32.781,32.781,0,0,1-4.937,2.237l-1.328-2.289a25.821,25.821,0,0,0,5.3-2.721h-5.067v-2.445h9.265l-.034-.5c-.382.13-1.209-.1-1.258-1.486h1.2v-.875h-1.706v2.262h-2.4v-2.262H471.4v2.115h-2.495v-3.964h4.432c-.006.013,0-.876,0-.876h-5.067v-2.077h.963a12.981,12.981,0,0,1-1.083-1.5,9.572,9.572,0,0,0,2.144-2.726l2.29.522-.308.89h1.061v-1.565h2.4Z" transform="translate(-56.377 -30.063)" fill="#1a1311"/>
    <path id="パス_27" data-name="パス 27" d="M414.35,287.585l.651,4.871-1.849.659-.652-4.649Z" transform="translate(-42.217 -30.465)" fill="#1a1311"/>
    <path id="パス_28" data-name="パス 28" d="M422.883,301.607h5.54v-.787h-5.54Zm0-2.837h5.54v-.79h-5.54Zm-2.536-9.462-.934,3.46-1.787-.925v1.666h2.12v-.645h4.664v-.7h-4.063V290h4.063v-.694Zm-2.721-3.738v5.862l1.133-4.06,1.264.446v-.814h4.387V285.57h2.533v1.435h4.572v2.3h-4.572V290h4.2v2.166h-4.2v.7h4.848v2.349H419.746v.922h-1.615a11.268,11.268,0,0,0,2.216,3.091v-3.363h10.525v9.921a1.884,1.884,0,0,1-1.15,1.182,9.2,9.2,0,0,1-3.18.214l-.662-2.368c.049-.095,1.875.229,2.543-.363v-.84h-5.54v3.6h-2.536v-7.355l-1.175,1.917a5.4,5.4,0,0,1-1.546-1.852v7.289h-2.5v-6.093a19.476,19.476,0,0,1-1.847,2.959l-1.428-2.633a20.8,20.8,0,0,0,2.906-5.307h-2.447v-2.627h2.816V285.57Z" transform="translate(-42.053 -29.951)" fill="#1a1311"/>
    <path id="パス_29" data-name="パス 29" d="M449.181,293.23l-.273.542.515-.072Zm.46,2.465-2.879.212c.114-.043-.49.6-.49.6h5.213a.9.9,0,0,0-.146-.588l-1.655.267Zm4.153-.11.187.919h1.29v-.874Zm-9.273,1.565v7.8a8.489,8.489,0,0,0,2.492-5.769h-1.34v-.925Zm7.428,2.033h-2.442a15.816,15.816,0,0,0,2.672,2.259,9.429,9.429,0,0,0-1,2.154,4.555,4.555,0,0,0,1.774-1.181c-.291-.881-1-3.232-1-3.232m2.492,0c0,.44.434.95.654,1.32a2.814,2.814,0,0,0,.913-1.32Zm-8.4-7.66v1.1H444.8a2.2,2.2,0,0,0,.864,1.656A8.638,8.638,0,0,0,447.2,292.5Zm4.941-.773-1.331,1.914,1.144-.221s.136-.089.332,1.037Zm2.532-.428a9.137,9.137,0,0,0,.235,3.462l1.568-1.756s-1.286-1.117-1.8-1.706m-8.992-4.753v4.292h.6l.781-1.709.656.448a10.46,10.46,0,0,0,1.188-2.439l2,.676c-.231,1.25-1.224,2.462-1.673,3.44l.4.322a7.209,7.209,0,0,0,1.127-1.752l1.289,1.015.045-4.292h2.445c0,3.506.138,3.092.138,3.092l.743-.834.556.463,1.1-2.354,1.873.769-1.411,3.025c0,.145.2.353.417.5l1.135-1.609,1.45,1.238-2.629,3.646h1.063l-.251-.759,1.4-.458a13.841,13.841,0,0,1,1.063,3.062l-1.607.487a1.2,1.2,0,0,1-.192-.626l-.755.2a1.409,1.409,0,0,0,.152,1.088h2.123v2.679h-2.72l1.524,1.428a11.157,11.157,0,0,1-2.129,2.559,1.122,1.122,0,0,0,.739.663c.738-.223.862-1.289,1.156-1.887l1.846,2.4a6.406,6.406,0,0,1-2.272,2.659c-1.48.294-2.777-1.261-3.586-2.15a13.811,13.811,0,0,1-3.786,2.168,8.206,8.206,0,0,1-1.336-2.622c.521-.218,1.032-.366,1.475-.585a3.38,3.38,0,0,0-1.472-1.258c-.741,1.548-1.187,3.393-2.591,4.567a19.148,19.148,0,0,1-2.072-2.176v2.441h-2.5v-7.423l-1.429,2.075-1.076-3.126a23.238,23.238,0,0,0,2.505-6.293h-1.986v-2.765h1.986V285.57Z" transform="translate(-49.105 -29.951)" fill="#1a1311"/>
  </g>
</svg>
