<svg version="1.1" id="Layer_1" xmlns="http://www.w3.org/2000/svg" xmlns:xlink="http://www.w3.org/1999/xlink" x="0px" y="0px" viewBox="0 0 334.8804 238.9283" enable-background="new 0 0 334.8804 238.9283" xml:space="preserve">
<g>
	<path d="M189.9402,35.3167c0-12.4268-10.0723-22.5-22.5-22.5c-12.4258,0-22.5,10.0732-22.5,22.5
		c0,4.8527,1.5414,9.3425,4.1541,13.0176h36.6926C188.3992,44.6592,189.9402,40.1694,189.9402,35.3167z" id="id_120" style="fill: rgb(255, 255, 255);"></path>
	<path d="M173.2041,124.681c-0.5332,0-1.0703-0.042-1.5977-0.124l-4.1663-0.6496l-4.1663,0.6496
		c-0.5273,0.082-1.0645,0.124-1.5977,0.124c-2.7117,0-5.1829-1.0416-7.028-2.7682l-14.2542-2.2227v0.4662l0.625,9.6438
		l6.1973,95.6323c0.4419,6.8157,6.3252,11.9792,13.1367,11.5378c2.7085-0.1753,5.1479-1.2197,7.0874-2.8308
		c1.9395,1.6111,4.3789,2.6555,7.0869,2.8308c6.812,0.4414,12.6953-4.7222,13.1367-11.5378l6.1978-95.6335l0.624-9.634v-0.4747
		l-14.2539,2.2226C178.387,123.6395,175.9158,124.681,173.2041,124.681z" id="id_121" style="fill: rgb(255, 255, 255);"></path>
	<path d="M123.9311,55.637c4.5096-3.195,7.8621-8.0433,9.0453-13.8879c2.4658-12.1797-5.4072-24.0512-17.588-26.5172
		c-12.1786-2.4656-24.0513,5.4083-26.5172,17.588c-1.1263,5.5633-0.0898,11.0593,2.5236,15.6271l29.3613,5.944
		C121.9122,54.6251,122.9744,55.0599,123.9311,55.637z" id="id_122" style="fill: rgb(255, 255, 255);"></path>
	<path d="M13.6094,92.6957c0.46,0.2988,1.9668,0.9941,5.9805,0.9941c2.7002,0,6.0118-0.3184,9.6693-0.9009l-6.9379-21.5912
		c-1.7373-5.4072,1.248-11.2197,6.6543-12.957c1.0244-0.3301,2.0859-0.4971,3.1553-0.4971c4.4893,0,8.4287,2.874,9.8018,7.1523
		l4.7344,14.7345c0.6326-3.1569,1.2542-6.1529,1.7934-8.9072c2.8691-9.9531-0.8848-21.8652-9.4199-23.9921
		c-8.5371-2.129-20.9121,2.5078-25.9473,17.1503C9.6596,74.0611,7.5899,82.4485,6.7104,91.1136
		c0.4269-0.0535,0.86-0.081,1.2974-0.081C9.9971,91.0326,11.9346,91.6078,13.6094,92.6957z" id="id_123" style="fill: rgb(255, 255, 255);"></path>
	<path d="M36.8379,116.3744l-1.2063-3.7541c-5.0948,0.9262-10.4105,1.5552-15.4568,1.5558c-5.2712,0-9.7738-0.7133-13.4865-2.0953
		c0.1884,2.3401,0.4257,4.7642,0.7233,7.3202c1.9562,10.0667,7.0027,14.4854,12.7503,16.355l7.6143,32.3601l-4.3486,55.7598
		c-0.5371,6.8828,4.6074,12.8975,11.4902,13.4336c0.3311,0.0264,0.6592,0.0391,0.9854,0.0391
		c6.4619-0.001,11.9375-4.9775,12.4482-11.5293l4.5-57.7002c0.1006-1.2852,0.001-2.5791-0.2939-3.835l-9.2934-39.4979
		c-0.0057-0.5879-0.0228-1.2038-0.0515-1.8497C40.2381,121.8906,37.8462,119.5134,36.8379,116.3744z" id="id_124" style="fill: rgb(255, 255, 255);"></path>
	<path d="M77.3555,52.1273c4.2852,6.3262,18.668,13.9717,31.4092,18.9355l16.624-10.8096
		c-1.0776-1.7983-2.8717-3.1592-5.0891-3.6082l-37.8667-7.6661c-1.409-0.2853-2.8026-0.1598-4.068,0.2814
		c-0.8034,0.1953-1.7133,0.4982-2.7031,0.9384C76.2967,50.7624,76.8679,51.407,77.3555,52.1273z" id="id_125" style="fill: rgb(255, 255, 255);"></path>
	<path d="M34.92,110.4059l-4.9482-15.3992c-8.0689,1.3139-14.8267,1.4268-17.6154-0.3823
		c-3.708-2.4082-8.6602-1.3506-11.0654,2.3545c-2.4062,3.7061-1.3516,8.6602,2.3545,11.0654
		c4.3027,2.793,10.1709,3.832,16.5293,3.832C24.969,111.8757,30.0382,111.282,34.92,110.4059z" id="id_126" style="fill: rgb(255, 255, 255);"></path>
	<path d="M120.149,96.3376l1.4323,4.5148l1.4083,4.4394l1.6248,5.1217c0.918,2.8936,3.3945,5.0176,6.3936,5.4854l21.6082,3.3693
		c-0.5369-1.0052-0.9214-2.1127-1.1067-3.3009c-0.8694-5.5756,2.9316-10.8169,8.485-11.7418l-21.6261-3.3724l-4.2883-13.5182
		l-2.1461-6.765l-16.2618,10.5742c-1.6758,1.0898-3.6172,1.665-5.6152,1.665c-1.1377,0-2.2607-0.1865-3.3369-0.5557
		c-3.5125-1.2031-33.8979-11.951-45.5196-27.331c-3.5065,5.8929-7.0705,13.918-10.3633,24.8779
		c-0.2709,0.0897-0.5444,0.1772-0.8168,0.2656l3.6088,11.2315l8.3225-1.6884l2.6448-13.0645l2.2921,0.2672l-2.4903,12.3009
		l25.7758-5.2292c0.6787-0.1387,1.374-0.209,2.0635-0.209c4.8692,0,9.1075,3.4717,10.0782,8.2549
		c0.5479,2.6963,0.0117,5.4443-1.5078,7.7373c-1.5195,2.2939-3.8418,3.8574-6.5381,4.4043l-34.309,6.9608l-0.2068,1.0215
		c-0.2067,1.0211-0.1989,2.0351-0.0125,2.9982c-0.0248,0.5798-0.0239,1.165,0.0349,1.7592l0.3738,3.7765l9.5974,96.95
		c0.6729,6.7969,6.7281,11.7576,13.5211,11.0852c3.3356-0.3302,6.225-1.9614,8.2282-4.3359
		c2.2661,2.8275,5.7429,4.6422,9.6472,4.6422c6.8281,0,12.3651-5.5332,12.3651-12.3633v-89.7277v-7.7015L120.149,96.3376z" id="id_127" style="fill: rgb(255, 255, 255);"></path>
	<path d="M109.0342,73.6312c-11.6191-4.4199-28.4981-12.707-33.584-20.2148c-2.4766-3.6602-7.4541-4.6152-11.1094-2.1367
		c-3.6582,2.4775-4.6152,7.4521-2.1367,11.1094c10.4463,15.4219,41.7276,26.4785,45.2608,27.6885
		c0.8438,0.2891,1.7197,0.4316,2.5918,0.4316c1.5293,0,3.0469-0.4385,4.3613-1.293l22.1296-14.3897l1.5464-1.0054l2.3002-1.4957
		v26.5161l27.046,4.2174l27.0458-4.2173V72.3251l2.2994,1.4952l1.5474,1.0062l22.1296,14.3897
		c1.3145,0.8545,2.832,1.293,4.3613,1.293c0.8721,0,1.748-0.1426,2.5918-0.4316c3.5332-1.21,34.8144-12.2666,45.2607-27.6885
		c2.4785-3.6572,1.5215-8.6318-2.1367-11.1094c-3.6553-2.4785-8.6328-1.5234-11.1094,2.1367
		c-5.0859,7.5078-21.9648,15.7949-33.584,20.2148L203.6944,59.227l-7.8684-5.1165l-3.4661-2.2537
		c-1.6736-1.087-3.6003-1.4628-5.4336-1.2139c-0.0566-0.0012-0.1118-0.0085-0.1688-0.0085h-38.6348
		c-0.057,0-0.1121,0.0073-0.1687,0.0085c-1.8331-0.2488-3.7599,0.1269-5.4335,1.2139l-3.4675,2.2548l-7.8669,5.1154
		L109.0342,73.6312z" id="id_128" style="fill: rgb(255, 255, 255);"></path>
	<circle cx="55.0625" cy="22.5" r="22.5" id="id_129" style="fill: rgb(250, 254, 255);"></circle>
	<path d="M93.8125,111.8168c4.3301-0.8779,7.128-5.1006,6.2491-9.4307s-5.0967-7.1338-9.4307-6.249l-38.5615,7.8232L39.7431,65.599
		c-1.3506-4.207-5.8574-6.5234-10.0635-5.1689c-4.2061,1.3516-6.5205,5.8574-5.1689,10.0635l14.5166,45.1777
		c1.0801,3.3613,4.1992,5.5537,7.6113,5.5537c0.5264,0,1.0615-0.0527,1.5957-0.1611L93.8125,111.8168z" id="id_130" style="fill: rgb(255, 255, 255);"></path>
	<path d="M243.4856,48.447c2.6135-4.5678,3.6499-10.0638,2.5237-15.6271c-2.4658-12.1797-14.3386-20.0536-26.5172-17.588
		c-12.1807,2.466-20.0538,14.3375-17.588,26.5172c1.1832,5.8446,4.5356,10.6929,9.0453,13.8879
		c0.9567-0.577,2.0189-1.0118,3.175-1.246L243.4856,48.447z" id="id_131" style="fill: rgb(255, 255, 255);"></path>
	<path d="M302.7495,57.7435c1.0693,0,2.1309,0.167,3.1553,0.4971c5.4062,1.7373,8.3916,7.5498,6.6543,12.957l-6.9377,21.5912
		c3.6575,0.5826,6.969,0.9009,9.6692,0.9009c4.0137,0,5.5205-0.6953,5.9805-0.9941c1.6748-1.0879,3.6123-1.6631,5.6016-1.6631
		c0.4375,0,0.8706,0.0275,1.2976,0.081c-0.8796-8.665-2.9493-17.0525-6.3829-27.2321
		c-5.0353-14.6425-17.4103-19.2794-25.9474-17.1503c-8.535,2.1269-12.2889,14.039-9.4198,23.9921
		c0.5392,2.7543,1.1608,5.7502,1.7933,8.907l4.7344-14.7344C294.3208,60.6176,298.2603,57.7435,302.7495,57.7435z" id="id_132" style="fill: rgb(255, 255, 255);"></path>
	<path d="M299.2488,112.6203l-1.2063,3.7541c-1.0083,3.139-3.4001,5.5162-6.3745,6.5621c-0.0288,0.6458-0.0458,1.2617-0.0515,1.8495
		l-9.2935,39.4982c-0.2949,1.2559-0.3945,2.5498-0.2939,3.835l4.5,57.7002c0.5107,6.5527,5.9854,11.5293,12.4482,11.5293
		c0.3262,0,0.6553-0.0127,0.9854-0.0391c6.8828-0.5361,12.0273-6.5508,11.4902-13.4336l-4.3486-55.7598l7.6143-32.3601
		c5.7476-1.8696,10.7942-6.2883,12.7502-16.355c0.2976-2.556,0.5349-4.9801,0.7234-7.3202
		c-3.7126,1.382-8.2153,2.0953-13.4866,2.0953C309.6593,114.1755,304.3437,113.5465,299.2488,112.6203z" id="id_133" style="fill: rgb(255, 255, 255);"></path>
	<path d="M314.7056,111.8763c6.3584,0,12.2266-1.0391,16.5293-3.832c3.7061-2.4053,4.7607-7.3594,2.3545-11.0654
		c-2.4053-3.7051-7.3574-4.7627-11.0654-2.3545c-2.7886,1.809-9.5464,1.6962-17.6152,0.3823l-4.9482,15.3992
		C304.8423,111.282,309.9114,111.8757,314.7056,111.8763z" id="id_134" style="fill: rgb(255, 255, 255);"></path>
	<path d="M275.1392,125.0508c0.1863-0.9631,0.1942-1.977-0.0125-2.9979l-0.2068-1.0215l-34.3091-6.9608
		c-2.6963-0.5469-5.0186-2.1104-6.5381-4.4043c-1.5195-2.293-2.0557-5.041-1.5078-7.7373c0.9707-4.7832,5.209-8.2549,10.0781-8.2549
		c0.6895,0,1.3848,0.0703,2.0635,0.209l25.7759,5.2292l-2.4904-12.3009l2.2921-0.2672l2.6449,13.0645l8.3224,1.6884l3.6089-11.2315
		c-0.2725-0.0884-0.5459-0.1759-0.8169-0.2656c-3.2927-10.9598-6.8567-18.9849-10.3633-24.8779
		c-11.6216,15.38-42.0071,26.1279-45.5195,27.331c-1.0762,0.3691-2.1992,0.5557-3.3369,0.5557c-1.998,0-3.9395-0.5752-5.6152-1.665
		l-16.2618-10.5742l-2.146,6.7649l-4.2885,13.5182l-36.0586,5.623c-4.3652,0.6807-7.3525,4.7715-6.6719,9.1367
		c0.6152,3.9482,4.0205,6.7686,7.8945,6.7686c0.4102,0,0.8242-0.0312,1.2422-0.0967l40.9541-6.3857
		c2.999-0.4678,5.4756-2.5918,6.3936-5.4854l1.6248-5.1218l1.4083-4.4393l1.4323-4.5148l6.64,32.7983v7.7015v89.7277
		c0,6.8301,5.5371,12.3633,12.3652,12.3633c3.9042,0,7.381-1.8146,9.6471-4.6422c2.0032,2.3746,4.8926,4.0057,8.2283,4.3359
		c6.793,0.6724,12.8481-4.2883,13.521-11.0852l9.5974-96.9501l0.3739-3.7764C275.1632,126.216,275.1641,125.6307,275.1392,125.0508z
		" id="id_135" style="fill: rgb(255, 255, 255);"></path>
	<path d="M226.1158,71.0629c12.7412-4.9639,27.124-12.6094,31.4092-18.9355c0.4875-0.7203,1.0588-1.3649,1.6937-1.9286
		c-0.9897-0.4402-1.8997-0.743-2.703-0.9383c-1.2654-0.4412-2.659-0.5667-4.0681-0.2814l-37.8666,7.6661
		c-2.2174,0.449-4.0115,1.8099-5.0892,3.6083L226.1158,71.0629z" id="id_136" style="fill: rgb(255, 255, 255);"></path>
	<circle cx="279.818" cy="22.5" r="22.5" id="id_137" style="fill: rgb(255, 255, 255);"></circle>
	<path d="M282.8111,103.9603l-38.5615-7.8232c-4.334-0.8848-8.5518,1.9189-9.4307,6.249s1.9189,8.5527,6.249,9.4307l45.5781,9.2471
		c0.5342,0.1084,1.0693,0.1611,1.5957,0.1611c3.4121,0,6.5312-2.1924,7.6113-5.5537l14.5166-45.1777
		c1.3516-4.2061-0.9629-8.7119-5.1689-10.0635c-4.2061-1.3545-8.7129,0.9619-10.0635,5.1689L282.8111,103.9603z" id="id_138" style="fill: rgb(255, 255, 255);"></path>
</g>
</svg>